# xmcd
# Track frame offsets: 
#        150
#        14227
#        25472
#        41880
#        60645
#        73385
#        84902
#        98387
#        116045
#        130942
#        143082
#        157537
#        171097
#        185457
#        197812
#        210432
#        227885
# Disc length: 3145 seconds
# Revision: 0
# Processed by: cddbd v1.4PL0 Copyright (c) Steve Scherf et al.
# Submitted via: ExactAudioCopy v0.90a9
#
DISCID=eb0c4711
DTITLE=Handsome Ned - The Name Is Ned, Disc 1
DYEAR=1900
DGENRE=
TTITLE0=Put The Blame On Me
TTITLE1=I've Come To Get My Baby Out Of Jail
TTITLE2=Wrong Side Of The Tracks
TTITLE3=In Spite Of The Danger
TTITLE4=Ain't No Room For Cheatin'
TTITLE5=Rockabilly Girls
TTITLE6=Never Had It So Good
TTITLE7=Restless
TTITLE8=Sun Rockin'
TTITLE9=Great Shakin' Fever
TTITLE10=Cryin' Heartache Misery
TTITLE11=Sea Of Heartbreak
TTITLE12=Put The Blame On Me
TTITLE13=Dim Lights, Thick Smoke (And Loud, Loud Music)
TTITLE14=I Still Miss Someone
TTITLE15=Bad Bad Boy
TTITLE16=Unknown Track
EXTD=
EXTT0=
EXTT1=
EXTT2=
EXTT3=
EXTT4=
EXTT5=
EXTT6=
EXTT7=
EXTT8=
EXTT9=
EXTT10=
EXTT11=
EXTT12=
EXTT13=
EXTT14=
EXTT15=
EXTT16=
PLAYORDER=
